<svg xmlns="http://www.w3.org/2000/svg" viewBox="200 0 30 60" preserveAspectRatio="xMidYMid"><defs><filter id="editing-extrude-glow"><feFlood flood-color="#818181" result="flood-1"></feFlood><feMorphology operator="erode" radius="1" in="SourceAlpha" result="erode"></feMorphology><feComposite operator="in" in="flood-1" in2="erode" result="comp1"></feComposite><feConvolveMatrix order="3,3" divisor="1" in="comp1" result="convolve" kernelMatrix="0 0 0 1 1 1 0 0 0"></feConvolveMatrix><feOffset dx="-3" dy="0" in="convolve" result="extrude"></feOffset><feComposite operator="in" in="flood-1" in2="extrude" result="comp-extrude"></feComposite><feComponentTransfer in="blur" result="shadow"><feFuncA type="linear" slope="0.8" intercept="-0.2"></feFuncA></feComponentTransfer><feMerge><feMergeNode in="shadow"></feMergeNode><feMergeNode in="comp-extrude"></feMergeNode><feMergeNode in="SourceGraphic"></feMergeNode></feMerge></filter></defs><g filter="url(#editing-extrude-glow)"><g transform="translate(200, 60)"><path d="M2.43 0L2.43-54.98L19.33-54.98L19.33-54.98Q23.36-54.98 25.57-53.15L25.57-53.15L25.57-53.15Q27.78-51.33 28.54-48.03L28.54-48.03L28.54-48.03Q29.31-44.74 29.31-39.62L29.31-39.62L29.31-39.62Q29.31-34.94 28.10-32.32L28.10-32.32L28.10-32.32Q26.88-29.70 23.87-28.67L23.87-28.67L23.87-28.67Q26.37-28.16 27.49-26.18L27.49-26.18L27.49-26.18Q28.61-24.19 28.61-20.80L28.61-20.80L28.48 0L17.73 0L17.73-21.50L17.73-21.50Q17.73-23.81 16.83-24.45L16.83-24.45L16.83-24.45Q15.94-25.09 13.57-25.09L13.57-25.09L13.57 0L2.43 0ZM13.63-34.62L16.26-34.62L16.26-34.62Q18.56-34.62 18.56-39.62L18.56-39.62L18.56-39.62Q18.56-41.79 18.37-42.88L18.37-42.88L18.37-42.88Q18.18-43.97 17.66-44.38L17.66-44.38L17.66-44.38Q17.15-44.80 16.19-44.80L16.19-44.80L13.63-44.80L13.63-34.62Z" fill="#ffd700"></path></g></g></svg>